<svg width="188" height="22" viewBox="0 0 188 22" fill="none" xmlns="http://www.w3.org/2000/svg">
<g clip-path="url(#clip0)">
<path d="M0 0.0628571C0.236793 1.12377 0.719058 2.09219 1.39614 2.86642C2.07323 3.64064 2.92015 4.19209 3.84795 4.46286H9.89474L10.1696 4.52571V21.8743H13.9076V4.58857L14.2924 4.4H20.3392C21.2644 4.12317 22.1085 3.56969 22.7847 2.79642C23.461 2.02314 23.945 1.05795 24.1871 0L0 0V0.0628571ZM131.16 0.0628571H127.422V21.9371H144.573C145.386 21.5859 146.111 21.0128 146.686 20.2679C147.261 19.5229 147.668 18.6287 147.871 17.6629H131.215V0L131.16 0.0628571ZM102.411 4.33714C104.389 3.70857 106.039 1.94857 106.478 0L85.5345 0.0628571V13.0114H102.63V17.5371H89.2175C88.1935 17.8418 87.2376 18.3915 86.4132 19.15C85.5887 19.9085 84.9145 20.8585 84.4351 21.9371H106.368V8.73714H89.2175V4.33714H102.411V4.33714ZM166.287 21.9371H169.97V13.1371H183.492V21.9371H187.175V8.73714H166.287V21.9371ZM46.8901 4.4H61.1825C62.123 4.14559 62.9844 3.60072 63.6726 2.82481C64.3609 2.0489 64.8496 1.07177 65.0854 0L43.0421 0C43.2734 1.06392 43.7539 2.03568 44.4318 2.81089C45.1098 3.5861 45.9596 4.13547 46.8901 4.4V4.4ZM46.8901 13.0743H61.1825C62.123 12.8199 62.9844 12.275 63.6726 11.4991C64.3609 10.7232 64.8496 9.74605 65.0854 8.67429H43.0421C43.2734 9.73821 43.7539 10.71 44.4318 11.4852C45.1098 12.2604 45.9596 12.8098 46.8901 13.0743V13.0743ZM46.8901 21.9371H61.1825C62.123 21.6827 62.9844 21.1379 63.6726 20.362C64.3609 19.586 64.8496 18.6089 65.0854 17.5371H43.0421C43.2734 18.6011 43.7539 19.5728 44.4318 20.348C45.1098 21.1232 45.9596 21.6726 46.8901 21.9371V21.9371ZM169.585 4.4H183.877C184.808 4.13547 185.657 3.5861 186.335 2.81089C187.013 2.03568 187.494 1.06392 187.725 0L165.737 0C165.968 1.06392 166.449 2.03568 167.127 2.81089C167.805 3.5861 168.654 4.13547 169.585 4.4V4.4Z" fill="black"/>
</g>
<defs>
<clipPath id="clip0">
<rect width="188" height="22" fill="white"/>
</clipPath>
</defs>
</svg>
